<svg width="176" height="210" viewBox="0 0 176 210" fill="none" xmlns="http://www.w3.org/2000/svg">
<path d="M159.112 130.044C159.112 173.982 123.494 209.601 79.5562 209.601C35.6185 209.601 0 173.982 0 130.044C0 86.1068 35.6185 50.4883 79.5562 50.4883C123.494 50.4883 159.112 86.1068 159.112 130.044ZM43.5243 130.044C43.5243 149.944 59.6563 166.076 79.5562 166.076C99.4561 166.076 115.588 149.944 115.588 130.044C115.588 110.145 99.4561 94.0126 79.5562 94.0126C59.6563 94.0126 43.5243 110.145 43.5243 130.044Z" fill="#0217EA"/>
<path d="M0 12.5532V128.834C0 131.952 4.16646 133.001 5.64253 130.255L35.9768 73.8141C36.4413 72.9497 36.4538 71.9127 36.0101 71.0374L5.67584 11.1968C4.24856 8.38116 0 9.39649 0 12.5532Z" fill="#0217EA"/>
<circle cx="163.2" cy="196.8" r="12.8" fill="#F46E0D"/>
</svg>
