<svg width="139" height="139" viewBox="0 0 139 139" fill="none" xmlns="http://www.w3.org/2000/svg">
<rect width="139" height="139" rx="69.5" fill="#0217EA"/>
<path d="M103.659 77.9389C103.659 97.0921 88.1328 112.619 68.9797 112.619C49.8265 112.619 34.2999 97.0921 34.2999 77.9389C34.2999 58.7858 49.8265 43.2591 68.9797 43.2591C88.1328 43.2591 103.659 58.7858 103.659 77.9389ZM53.2728 77.9389C53.2728 86.6136 60.305 93.6458 68.9797 93.6458C77.6543 93.6458 84.6865 86.6136 84.6865 77.9389C84.6865 69.2643 77.6543 62.2321 68.9797 62.2321C60.305 62.2321 53.2728 69.2643 53.2728 77.9389Z" fill="white"/>
<path d="M34.3 21.2509V82.6074L50.3061 52.8262L34.3 21.2509Z" fill="white"/>
<ellipse cx="109.214" cy="102.896" rx="7.94286" ry="7.22078" fill="#F46E0D"/>
</svg>
